<svg xmlns="http://www.w3.org/2000/svg" xmlns:xlink="http://www.w3.org/1999/xlink" width="42" height="42"><defs><linearGradient id="b" x1="1073.403" x2="1097.116" y1="516.451" y2="544.308" gradientTransform="translate(-1438.388 316.47) scale(1.34562)" gradientUnits="userSpaceOnUse" xlink:href="#a"/><linearGradient id="a"><stop offset="0" stop-color="#16ff6a"/><stop offset="1" stop-color="#0090a5"/></linearGradient></defs><g transform="translate(0 -1010.362)"><rect width="42" height="42" y="1010.362" fill="url(#b)" rx="8.876" ry="8.876"/><path style="line-height:normal;text-indent:0;text-align:start;text-decoration-line:none;text-decoration-style:solid;text-decoration-color:#000;text-transform:none;block-progression:tb;isolation:auto;mix-blend-mode:normal" fill="#fff" d="M6.5 1019.362a.5.5 0 0 0-.5.5v22a.5.5 0 0 0 .5.5h4.25v-1H7v-17h24v10.236c.01.049.034.09.04.14.277-.227.62-.342.96-.349v-14.527a.5.5 0 0 0-.5-.5h-25zm.5 1h24v3H7v-3zm1.5 1a.5.5 0 0 0-.5.5.5.5 0 0 0 .5.5.5.5 0 0 0 .5-.5.5.5 0 0 0-.5-.5zm2 0a.5.5 0 0 0-.5.5.5.5 0 0 0 .5.5.5.5 0 0 0 .5-.5.5.5 0 0 0-.5-.5zm2 0a.5.5 0 0 0-.5.5.5.5 0 0 0 .5.5.5.5 0 0 0 .5-.5.5.5 0 0 0-.5-.5zm10.143 3.63a.5.5 0 0 0-.422.241l-.897 1.494a.5.5 0 0 0-.078.041l-5.705 3.725a.5.5 0 0 0-.227.416l-.011 4.424c-.773-.055-1.255-.2-1.547-.371-.37-.217-.512-.467-.688-.823-.176-.355-.364-.831-.838-1.203-.473-.369-1.168-.574-2.23-.574a.5.5 0 1 0 0 1c.938 0 1.37.172 1.613.363.244.192.366.466.56.86.196.394.486.894 1.077 1.24.547.32 1.32.5 2.453.525a.5.5 0 0 0 .098.013h4.963a.5.5 0 0 0 .42-.227l3.722-5.703a.5.5 0 0 0 .043-.082l1.494-.897a.5.5 0 0 0 .096-.781l-3.535-3.537a.5.5 0 0 0-.361-.145zm.105 1.306 2.63 2.63-.882.53-2.277-2.276.529-.882zm-1.297 1.531 2.397 2.397-3.354 5.136h-3.473l1.805-1.805c.557.262 1.246.17 1.703-.287a1.507 1.507 0 0 0 0-2.12 1.507 1.507 0 0 0-2.12 0 1.505 1.505 0 0 0-.29 1.7l-1.814 1.815.01-3.48 5.136-3.356zm-1.982 3.877a.5.5 0 0 1 .353.15c.2.2.2.508 0 .707-.2.2-.507.2-.707 0-.2-.2-.2-.507 0-.707.1-.1.227-.15.354-.15zm7.94 2.656a.5.5 0 0 0-.5.5v.895c-.31.096-.61.217-.897.367l-.63-.627a.5.5 0 0 0-.706 0l-1.543 1.541a.5.5 0 0 0 0 .707l.63.63c-.15.289-.276.587-.372.897H22.5a.5.5 0 0 0-.5.5v2.182a.5.5 0 0 0 .5.5h.893c.096.31.218.61.369.898l-.63.63a.5.5 0 0 0 0 .706l1.544 1.541a.5.5 0 0 0 .707 0l.63-.629c.288.15.586.273.895.37v.892a.5.5 0 0 0 .5.5h2.184a.5.5 0 0 0 .5-.5v-.892c.31-.096.608-.218.896-.368l.63.627a.5.5 0 0 0 .706 0l1.543-1.54a.5.5 0 0 0 0-.708l-.63-.63c.15-.289.276-.587.372-.897h.891a.5.5 0 0 0 .5-.5v-2.182a.5.5 0 0 0-.5-.5h-.893a5.385 5.385 0 0 0-.369-.898l.63-.629a.5.5 0 0 0 0-.707l-1.544-1.541a.5.5 0 0 0-.707 0l-.63.629a5.373 5.373 0 0 0-.895-.37v-.894a.5.5 0 0 0-.5-.5h-2.184zm.5 1h1.183v.719a.5.5 0 0 0 .388.488c.484.11.944.301 1.364.565a.5.5 0 0 0 .619-.07l.508-.506.836.834-.506.506a.5.5 0 0 0-.07.617c.262.42.451.883.56 1.367a.5.5 0 0 0 .488.39H34v1.182h-.719a.5.5 0 0 0-.488.389c-.11.483-.3.945-.564 1.365a.5.5 0 0 0 .07.62l.508.507-.836.834-.506-.504a.5.5 0 0 0-.617-.07c-.421.262-.884.452-1.368.56a.5.5 0 0 0-.388.487v.72h-1.184v-.718a.5.5 0 0 0-.388-.486 4.4 4.4 0 0 1-1.364-.565.5.5 0 0 0-.619.07l-.508.506-.836-.834.506-.506a.5.5 0 0 0 .07-.619 4.403 4.403 0 0 1-.56-1.365.5.5 0 0 0-.488-.39H23v-1.182h.719a.5.5 0 0 0 .488-.389c.11-.483.301-.945.564-1.365a.5.5 0 0 0-.07-.62l-.508-.507.836-.834.506.504a.5.5 0 0 0 .617.07c.421-.263.884-.454 1.368-.563a.5.5 0 0 0 .388-.484v-.723zm-12.284 1.73a.5.5 0 0 0-.5.5v.512a3.96 3.96 0 0 0-.422.172l-.361-.36a.5.5 0 0 0-.707 0l-1.06 1.061a.5.5 0 0 0 0 .707l.36.362a3.853 3.853 0 0 0-.175.422h-.51a.5.5 0 0 0-.5.5v1.5a.5.5 0 0 0 .5.5h.512c.05.144.105.284.172.422l-.36.36a.5.5 0 0 0 0 .708l1.06 1.06a.5.5 0 0 0 .708 0l.361-.36c.138.066.278.123.422.173v.512a.5.5 0 0 0 .5.5h1.5a.5.5 0 0 0 .5-.5v-.512a3.95 3.95 0 0 0 .422-.174l.361.362a.5.5 0 0 0 .707 0l1.06-1.061a.5.5 0 0 0 0-.71l-.359-.358a3.85 3.85 0 0 0 .174-.422h.51a.5.5 0 0 0 .5-.5v-1.5a.5.5 0 0 0-.5-.5h-.512a3.856 3.856 0 0 0-.174-.422l.362-.361a.5.5 0 0 0 0-.708l-1.06-1.06a.5.5 0 0 0-.708 0l-.361.361a3.797 3.797 0 0 0-.422-.176v-.51a.5.5 0 0 0-.5-.5h-1.5zm.5 1h.5v.339a.5.5 0 0 0 .389.486c.315.072.617.197.89.369a.5.5 0 0 0 .62-.07l.238-.238.353.353-.238.237a.5.5 0 0 0-.07.619c.17.274.296.575.367.89a.5.5 0 0 0 .486.391H20v.5h-.338a.5.5 0 0 0-.488.389 2.867 2.867 0 0 1-.367.888.5.5 0 0 0 .07.621l.238.239-.353.351-.237-.236a.5.5 0 0 0-.619-.07 2.872 2.872 0 0 1-.89.365.5.5 0 0 0-.391.488v.34h-.5v-.338a.5.5 0 0 0-.389-.488 2.881 2.881 0 0 1-.89-.367.5.5 0 0 0-.62.068l-.238.238-.353-.353.238-.239a.5.5 0 0 0 .07-.617 2.877 2.877 0 0 1-.367-.89.5.5 0 0 0-.486-.391h-.34v-.5h.338a.5.5 0 0 0 .488-.389c.072-.315.196-.617.367-.89a.5.5 0 0 0-.07-.62l-.238-.238.353-.353.237.236a.5.5 0 0 0 .619.07c.274-.171.575-.294.89-.365a.5.5 0 0 0 .391-.486v-.338zm12.375.272a2.51 2.51 0 0 0-2.5 2.498 2.51 2.51 0 0 0 2.5 2.5 2.51 2.51 0 0 0 2.5-2.5 2.51 2.51 0 0 0-2.5-2.498zm0 1c.826 0 1.5.672 1.5 1.498s-.674 1.5-1.5 1.5-1.5-.674-1.5-1.5c0-.825.674-1.498 1.5-1.498zm-12.125.707c-.903 0-1.646.744-1.646 1.647s.743 1.644 1.646 1.644c.903 0 1.646-.741 1.646-1.644 0-.903-.743-1.647-1.646-1.647zm0 1a.645.645 0 1 1 0 1.291.645.645 0 1 1 0-1.29z" color="#000" font-family="sans-serif" font-weight="400" overflow="visible"/></g></svg>