<svg xmlns="http://www.w3.org/2000/svg" viewBox="0 0 48 48"><linearGradient id="a" x1="897.027" x2="908.883" y1="-34.374" y2="-48.303" gradientTransform="matrix(3.0757 0 0 -3.0757 -2753.443 -103.399)" gradientUnits="userSpaceOnUse"><stop offset="0" stop-color="#72BF53"/><stop offset="1" stop-color="#0290A4"/></linearGradient><path fill="url(#a)" d="M10.1 0h27.7C43.5 0 48 4.5 48 10.1v27.7C48 43.5 43.5 48 37.9 48H10.1C4.5 48 0 43.5 0 37.9V10.1C0 4.5 4.5 0 10.1 0z"/><path fill="#fff" d="M22.4 27.9c-.2 0-.5-.2-.5-.4 0-.3.2-.5.4-.6 1.2-.1 2.3-.4 3.4-.7l.7-.2v-8c0-3.9-3.1-7-7-7s-7 3.1-7 7v8.1l.7.2c1.1.3 2.3.5 3.4.7.3 0 .5.3.4.6 0 .3-.3.5-.6.4-1.2-.1-2.4-.4-3.6-.7l-.8-.3c-.2-.1-.4-.3-.4-.5V18c0-4.4 3.6-8 8-8s8 3.6 8 8v8.5c0 .2-.2.4-.4.5l-1.1.3c-1.1.2-2.3.5-3.6.6.1 0 .1 0 0 0z"/><path fill="#fff" d="M19.5 31.3h-.2c-.3-.1-3.2-1.5-3.2-3.4v-2.1c0-.3.2-.5.5-.5s.5.2.5.5v2.1c0 1 1.6 2 2.4 2.4.8-.4 2.4-1.4 2.4-2.4v-2.1c0-.3.2-.5.5-.5s.5.2.5.5v2.1c0 1.9-2.9 3.2-3.2 3.4-.1-.1-.1 0-.2 0z"/><path fill="#fff" d="M19.5 27c-3.3 0-6-2.7-6-6v-2.1c0-.3.2-.5.5-.5s.5.2.5.5V21c0 2.8 2.2 5 5 5s5-2.2 5-5v-2.1c0-.3.2-.5.5-.5s.5.2.5.5V21c0 3.3-2.7 6-6 6zM30 38H9c-.3 0-.5-.2-.5-.5v-3.7c0-2 1.3-3.8 3.2-4.5l4.7-1.6c.3-.1.5.1.6.3.1.3-.1.5-.3.6L12 30.3c-1.5.5-2.5 1.9-2.5 3.5V37h20v-3.2c0-1.6-1-3-2.5-3.5l-4.7-1.6c-.3-.1-.4-.4-.3-.6.1-.3.4-.4.6-.3l4.7 1.6c1.9.6 3.2 2.4 3.2 4.5v3.7c0 .2-.2.4-.5.4z"/><path fill="#fff" d="M30 38h-5c-.3 0-.5-.2-.5-.5v-.8c0-2.8 2.1-5.2 4.9-5.5.2 0 .4.1.5.2.4.7.7 1.6.7 2.4v3.7c-.1.3-.3.5-.6.5zm-4.5-1h4v-3.2c0-.5-.1-1.1-.4-1.6-2.1.4-3.7 2.3-3.7 4.5v.3zM14 38H9c-.3 0-.5-.2-.5-.5v-3.7c0-.8.2-1.7.7-2.4.1-.2.3-.3.5-.2 2.8.3 4.9 2.7 4.9 5.5v.8c-.1.3-.3.5-.6.5zm-4.5-1h4v-.3c0-2.2-1.6-4-3.7-4.5-.2.5-.4 1.1-.4 1.6V37zM24.3 24.5H21c-.3 0-.5-.2-.5-.5s.2-.5.5-.5h3.3c1.2 0 2.2-1 2.2-2.2v-1.8c0-.3.2-.5.5-.5s.5.2.5.5v1.8c0 1.7-1.4 3.2-3.2 3.2zM19.5 31.3h-.2c-.3-.1-3.2-1.5-3.2-3.4v-2.1c0-.3.2-.5.5-.5s.5.2.5.5v2.1c0 1 1.6 2 2.4 2.4.8-.4 2.4-1.4 2.4-2.4v-2.1c0-.3.2-.5.5-.5s.5.2.5.5v2.1c0 1.9-2.9 3.2-3.2 3.4-.1-.1-.1 0-.2 0zM14 22h-1c-.8 0-1.5-.7-1.5-1.5v-1c0-.8.7-1.5 1.5-1.5h.5c.3 0 .5.2.5.5s-.2.5-.5.5H13c-.3 0-.5.2-.5.5v1c0 .3.2.5.5.5h.5v-1c0-.3.2-.5.5-.5s.5.2.5.5v1.5c0 .3-.2.5-.5.5z"/><path fill="#fff" d="M26 22h-1c-.3 0-.5-.2-.5-.5V20c0-.3.2-.5.5-.5s.5.2.5.5v1h.5c.3 0 .5-.2.5-.5v-1c0-.3-.2-.5-.5-.5h-1c-.3 0-.5-.2-.5-.5s.2-.5.5-.5h1c.8 0 1.5.7 1.5 1.5v1c0 .8-.7 1.5-1.5 1.5zM14 19h-1c-.3 0-.5-.2-.5-.5s.2-.5.5-.5h1c.8 0 1.5-.7 1.5-1.5v-1c0-.3.2-.5.5-.5s.5.2.5.5v1c0 1.4-1.1 2.5-2.5 2.5z"/><path fill="#fff" d="M25 19h-7c-1.4 0-2.5-1.1-2.5-2.5v-1c0-.3.2-.5.5-.5s.5.2.5.5v1c0 .8.7 1.5 1.5 1.5h7c.3 0 .5.2.5.5s-.2.5-.5.5zM35.9 17h-5c-.3 0-.5-.2-.5-.5s.2-.5.5-.5h5c.3 0 .5.2.5.5s-.2.5-.5.5zM33.9 19h-3c-.3 0-.5-.2-.5-.5s.2-.5.5-.5h3c.3 0 .5.2.5.5s-.2.5-.5.5z"/><path fill="#fff" d="M31 23c-.1 0-.2 0-.2-.1-.2-.1-.3-.3-.3-.4V21H30c-.8 0-1.5-.7-1.5-1.5v-4c0-.8.7-1.5 1.5-1.5h7c.8 0 1.5.7 1.5 1.5v4c0 .8-.7 1.5-1.5 1.5h-2.8l-2.9 1.9c-.1.1-.2.1-.3.1zm-1-8c-.3 0-.5.2-.5.5v4c0 .3.2.5.5.5h1c.3 0 .5.2.5.5v1.1l2.2-1.5c.1-.1.2-.1.3-.1h3c.3 0 .5-.2.5-.5v-4c0-.3-.2-.5-.5-.5h-7z"/></svg>