<svg xmlns="http://www.w3.org/2000/svg" viewBox="0 0 48 48"><linearGradient id="a" x1="914.377" x2="927.935" y1="-378.412" y2="-393.351" gradientTransform="matrix(3.0757 0 0 -3.0757 -2809.41 -1163.083)" gradientUnits="userSpaceOnUse"><stop offset="0" stop-color="#EC2579"/><stop offset="1" stop-color="#F37721"/></linearGradient><path fill="url(#a)" d="M10.1 0h27.7C43.5 0 48 4.5 48 10.1v27.7C48 43.5 43.5 48 37.9 48H10.1C4.5 48 0 43.5 0 37.9V10.1C0 4.5 4.5 0 10.1 0z"/><path fill="#fff" d="M28.3 20.5h-.4c-.7 0-1.2-.6-1.2-1.2V18c-1.6 1.1-3.5 1.5-5.4 1.1l-.8-.1s-.1.1-.1.2c0 .7-.6 1.2-1.2 1.2h-.4c-.2 0-.4-.2-.5-.4l-.7-3.2c-.1-.7 0-1.4.4-2 .4-.6 1-1 1.7-1.1l5-.8c.8-.1 1.5.1 2.1.6.5.4.8 1 .9 1.6.5.1.9.4 1.3.8.4.5.6 1.2.4 1.9l-.7 2.4c0 .1-.2.3-.4.3zm-3.1-6.6h-.3l-5 .8c-.4.1-.8.3-1.1.7-.3.4-.4.8-.3 1.2l.6 2.8c.1 0 .2-.1.2-.2 0-.7.6-1.2 1.2-1.2l.9.2c1.7.3 3.4-.1 4.8-1.1.3-.2.6-.2.9-.1.3.1.5.4.5.8v1.5c0 .1.1.2.2.2l.6-2c.1-.3 0-.7-.3-1-.2-.3-.6-.5-1-.5-.3 0-.5-.2-.5-.5 0-.5-.2-1-.6-1.3-.1-.2-.4-.3-.8-.3zM13.5 28.6h-.2c-.3-.1-1.8-.9-1.8-2v-1.1c0-.3.2-.5.5-.5s.5.2.5.5v1.1c0 .3.6.7 1 1 .5-.3 1-.7 1-1v-1.1c0-.3.2-.5.5-.5s.5.2.5.5v1.1c0 1.1-1.5 1.9-1.8 2h-.2z"/><path fill="#fff" d="M13.5 26.3c-1.9 0-3.5-1.6-3.5-3.5V22c0-.3.2-.5.5-.5s.5.2.5.5v.8c0 1.4 1.1 2.5 2.5 2.5s2.5-1.1 2.5-2.5V22c0-.3.2-.5.5-.5s.5.2.5.5v.8c0 1.9-1.6 3.5-3.5 3.5z"/><path fill="#fff" d="M10.5 22.6h-.1c-.2 0-.3-.2-.3-.3l-.5-1.5c-.1-.5 0-1 .3-1.4.2-.3.5-.4.8-.5.1-.4.3-.7.6-1 .4-.4 1-.5 1.5-.4l3.2.5c.5.1.9.4 1.2.8.3.4.4.9.3 1.4l-.5 2.1c0 .2-.2.3-.3.4-.2.1-.3 0-.5-.1l-1.1-.9c-.1-.1-.1-.1-.2-.1h-2.8c-.1 0-.2 0-.2.1l-1.1.9h-.3zm1.9-4.2c-.2 0-.4.1-.5.2-.2.2-.3.4-.3.6 0 .3-.2.5-.5.5-.2 0-.4.1-.5.2-.1.1-.2.3-.1.5l.3.8.5-.4c.2-.2.5-.3.9-.3H15c.3 0 .6.1.9.3l.4.4.3-1.3c0-.2 0-.4-.2-.6s-.4-.3-.6-.3l-3.2-.5c-.1-.1-.1-.1-.2-.1zM10.6 32.1H8c-.3 0-.5-.2-.5-.5v-1.9c0-.5.1-1 .4-1.4.1-.2.3-.3.5-.2 1.6.2 2.8 1.5 2.8 3.1v.4c-.1.3-.3.5-.6.5zm-2.1-1h1.6c0-.9-.7-1.7-1.5-2-.1.2-.1.4-.1.6v1.4z"/><path fill="#fff" d="M15.2 24.5h-1.3c-.3 0-.5-.2-.5-.5s.2-.5.5-.5h1.3c.4 0 .8-.3.8-.8v-.8c0-.3.2-.5.5-.5s.5.2.5.5v.8c0 1-.8 1.8-1.8 1.8zM23.5 29.8h-.2c-.3-.1-2.8-1.3-2.8-3V25c0-.3.2-.5.5-.5s.5.2.5.5v1.8c0 .7 1.2 1.5 2 1.9.8-.4 2-1.2 2-1.9V25c0-.3.2-.5.5-.5s.5.2.5.5v1.8c0 1.7-2.5 2.8-2.8 3h-.2z"/><path fill="#fff" d="M23.5 26.1c-2.8 0-5.1-2.3-5.1-5.1v-1c0-.3.2-.5.5-.5s.5.2.5.5v1c0 2.2 1.8 4.1 4.1 4.1s4.1-1.8 4.1-4.1v-1c0-.3.2-.5.5-.5s.5.2.5.5v1c0 2.8-2.3 5.1-5.1 5.1zM32 35.1H15c-.3 0-.5-.2-.5-.5v-3c0-1.7 1.1-3.2 2.7-3.7l3.7-1.2c.3-.1.5.1.6.3.1.3-.1.5-.3.6l-3.7 1.2c-1.2.4-2 1.5-2 2.8v2.5h16v-2.5c0-1.3-.8-2.4-2-2.8l-3.7-1.2c-.3-.1-.4-.4-.3-.6.1-.3.4-.4.6-.3l3.7 1.2c1.6.5 2.7 2 2.7 3.7v3c0 .3-.2.5-.5.5z"/><path fill="#fff" d="M32 35.1H15c-.3 0-.5-.2-.5-.5v-3c0-1.7 1.1-3.2 2.7-3.7l3.7-1.2c.3-.1.5.1.6.3.1.3-.1.5-.3.6l-3.7 1.2c-1.2.4-2 1.5-2 2.8v2.5h16v-2.5c0-1.3-.8-2.4-2-2.8l-3.7-1.2c-.3-.1-.4-.4-.3-.6.1-.3.4-.4.6-.3l3.7 1.2c1.6.5 2.7 2 2.7 3.7v3c0 .3-.2.5-.5.5z"/><path fill="#fff" d="M32 35.1H15c-.3 0-.5-.2-.5-.5v-3c0-1.7 1.1-3.2 2.7-3.7l3.7-1.2c.3-.1.5.1.6.3.1.3-.1.5-.3.6l-3.7 1.2c-1.2.4-2 1.5-2 2.8v2.5h16v-2.5c0-1.3-.8-2.4-2-2.8l-3.7-1.2c-.3-.1-.4-.4-.3-.6.1-.3.4-.4.6-.3l3.7 1.2c1.6.5 2.7 2 2.7 3.7v3c0 .3-.2.5-.5.5z"/><path fill="#fff" d="M15 32.1H8c-.3 0-.5-.2-.5-.5v-1.9c0-1.2.7-2.2 1.9-2.6l2.5-.8c.3-.1.5.1.6.3.1.3-.1.5-.3.6l-2.5.8c-.7.3-1.2 1-1.2 1.7v1.4h6c.2-1.4 1.1-2.6 2.5-3.1l-2.2-.7c-.3-.1-.4-.4-.3-.6.1-.3.4-.4.6-.3l2.5.8c.4.1.7.3 1 .6.1.1.2.3.1.5 0 .2-.2.3-.3.4l-1 .3c-1.2.4-2 1.5-2 2.7.1.2-.1.4-.4.4zM32 35.1h-4.1c-.3 0-.5-.2-.5-.5v-.7c0-2.3 1.7-4.3 4-4.5.2 0 .4.1.5.2.4.6.6 1.3.6 2v3c0 .3-.2.5-.5.5zm-3.6-1h3.1v-2.5c0-.4-.1-.8-.3-1.2-1.6.4-2.8 1.8-2.8 3.5v.2z"/><path fill="#fff" d="M19.1 35.1H15c-.3 0-.5-.2-.5-.5v-3c0-.7.2-1.4.6-2 .1-.2.3-.3.5-.2 2.3.3 4 2.2 4 4.5v.7c0 .3-.2.5-.5.5zm-3.6-1h3.1v-.2c0-1.7-1.2-3.1-2.8-3.5-.2.4-.3.8-.3 1.2v2.5zM26.1 23.4h-2c-.3 0-.5-.2-.5-.5s.2-.5.5-.5h2c.8 0 1.5-.7 1.5-1.5 0-.3.2-.5.5-.5s.5.2.5.5c0 1.4-1.1 2.5-2.5 2.5zM39 32.1h-2.6c-.3 0-.5-.2-.5-.5v-.4c0-1.6 1.2-2.9 2.8-3.1.2 0 .4.1.5.2.3.4.4.9.4 1.4v1.9c-.1.3-.3.5-.6.5zm-2.1-1h1.6v-1.4c0-.2 0-.4-.1-.6-.9.3-1.5 1.1-1.5 2zM33.5 28.6h-.2c-.3-.1-1.8-.9-1.8-2v-1.2c0-.3.2-.5.5-.5s.5.2.5.5v1.2c0 .3.6.7 1 1 .5-.3 1-.7 1-1v-1.2c0-.3.2-.5.5-.5s.5.2.5.5v1.2c0 1.1-1.5 1.9-1.8 2h-.2z"/><path fill="#fff" d="M33.5 26.2c-1.4 0-2.6-1.2-2.6-2.6v-2.1c0-.3.2-.5.5-.5s.5.2.5.5v2.1c0 .9.7 1.6 1.6 1.6s1.6-.7 1.6-1.6v-2.1c0-.3.2-.5.5-.5s.5.2.5.5v2.1c0 1.5-1.2 2.6-2.6 2.6zM39 32.1h-2.6c-.3 0-.5-.2-.5-.5v-.4c0-1.6 1.2-2.9 2.8-3.1.2 0 .4.1.5.2.3.4.4.9.4 1.4v1.9c-.1.3-.3.5-.6.5zm-2.1-1h1.6v-1.4c0-.2 0-.4-.1-.6-.9.3-1.5 1.1-1.5 2z"/><path fill="#fff" d="M31.8 22h-.4c-.3 0-.5-.2-.5-.5s.2-.5.5-.5h.4c.2 0 .3-.2.3-.3 0-.3.2-.5.5-.5s.5.2.5.5c.1.7-.6 1.3-1.3 1.3zM37.3 24.5c-.3 0-.5-.2-.5-.5v-.8c0-.7-.5-1.2-1.2-1.2h-1.7c-.3 0-.5-.2-.5-.5s.2-.5.5-.5h1.7c1.2 0 2.2 1 2.2 2.2v.8c0 .3-.2.5-.5.5z"/><path fill="#fff" d="M35.2 22h-1.7c-.7 0-1.3-.6-1.3-1.3 0-.3.2-.5.5-.5s.5.2.5.5c0 .2.2.3.3.3h1.7c.3 0 .5.2.5.5s-.2.5-.5.5zM34.3 24.5h-.4c-.3 0-.5-.2-.5-.5s.2-.5.5-.5h.4c.4 0 .8-.3.8-.8 0-.3.2-.5.5-.5s.5.2.5.5c0 1-.8 1.8-1.8 1.8z"/><path fill="#fff" d="M35 26.7c-.1 0-.2 0-.3-.1-.1-.1-.2-.2-.2-.4v-.8c0-.3.2-.5.5-.5s.5.2.5.5v.3c.3 0 .5-.1.8-.1h.2c.2 0 .3-.2.3-.3v-3.1c0-1.8-1.5-3.3-3.3-3.3s-3.3 1.5-3.3 3.3V25c0 .2.1.3.3.3h.2c.3.1.5.1.8.1v-.3c0-.3.2-.5.5-.5s.5.2.5.5v.8c0 .1-.1.3-.2.4-.1.1-.2.1-.4.1-.5-.1-1-.1-1.4-.2h-.2c-.6-.1-1.1-.7-1.1-1.3v-3.1c0-2.4 1.9-4.3 4.3-4.3s4.3 1.9 4.3 4.3V25c0 .6-.4 1.2-1.1 1.3h-.2c-.4.2-.9.3-1.5.4.1-.1.1 0 0 0z"/><path fill="#fff" d="M39 32.1h-7c-.3 0-.5-.2-.5-.5 0-1.2-.8-2.3-2-2.7l-1-.3c-.2-.1-.3-.2-.3-.4s0-.4.1-.5c.3-.3.6-.5 1-.6l2.5-.8c.3-.1.5.1.6.3.1.3-.1.5-.3.6L30 28c1.4.5 2.3 1.7 2.5 3.1h6v-1.4c0-.7-.5-1.4-1.2-1.6l-2.5-.8c-.3-.1-.4-.4-.3-.6s.4-.4.6-.3l2.5.8c1.1.4 1.9 1.4 1.9 2.6v1.9c0 .2-.2.4-.5.4z"/></svg>