<svg xmlns="http://www.w3.org/2000/svg" xmlns:xlink="http://www.w3.org/1999/xlink" width="48" height="48"><defs><linearGradient id="b" x1="1073.403" x2="1097.116" y1="516.451" y2="544.308" gradientTransform="translate(-1643.872 211.343) scale(1.53785)" gradientUnits="userSpaceOnUse" xlink:href="#a"/><linearGradient id="a"><stop offset="0" stop-color="#16ff6a"/><stop offset="1" stop-color="#0090a5"/></linearGradient></defs><g transform="translate(0 -1004.362)"><rect width="48" height="48" y="1004.362" fill="url(#b)" rx="10.144" ry="10.144"/><path style="line-height:normal;text-indent:0;text-align:start;text-decoration-line:none;text-transform:none;block-progression:tb" fill="#fff" d="M13.5 1016.362c-.822 0-1.5.678-1.5 1.5v15c0 .823.678 1.5 1.5 1.5h7.643c.347.902.283 1.566-.038 2.18-.334.642-.988 1.24-1.773 1.82H17.5a.523.523 0 0 0-.507.5.52.52 0 0 0 .507.5h14a.523.523 0 0 0 .507-.5.52.52 0 0 0-.507-.5h-1.82c-.662-.526-1.282-1.013-1.63-1.605-.337-.576-.462-1.285-.157-2.395H35.5c.822 0 1.5-.677 1.5-1.5v-15c0-.822-.678-1.5-1.5-1.5zm0 1h22c.286 0 .5.215.5.5v11.5h-1v-9h-3v9h-1v-7h-3v7h-1v-5h-3v5H13v-11.5c0-.285.214-.5.5-.5zm10.5 1v1h7v-1zm-5.5 1c-2.48 0-4.5 2.02-4.5 4.5s2.02 4.5 4.5 4.5 4.5-2.02 4.5-4.5-2.02-4.5-4.5-4.5zm5.5 1v1h5v-1zm-6 .05v2.433l-1.936-1.494a3.472 3.472 0 0 1 1.936-.94zm1 0a3.483 3.483 0 0 1 2.746 4.747L19 1023.573Zm14 .95h1v8h-1zm-17.537.786 1.933 1.494-2.355.63c-.016-.136-.041-.269-.041-.41 0-.627.176-1.206.463-1.714zM29 1023.362h1v6h-1zm-11 1.153v2.797a3.483 3.483 0 0 1-2.717-2.069zm1 .213 2.24 1.293a3.467 3.467 0 0 1-2.24 1.29zm6 .634h1v4h-1zm-12 5h23v2.5c0 .286-.214.5-.5.5h-22a.488.488 0 0 1-.5-.5zm11.5.868a.758.758 0 0 0-.75.75c0 .408.342.75.75.75s.75-.342.75-.75a.758.758 0 0 0-.75-.75zm-2.38 3.15h4.808c-.246 1.166-.166 2.152.261 2.88.283.482.713.758 1.104 1.102h-7.62c.478-.428 1.031-.805 1.32-1.357.385-.74.396-1.65.126-2.625z" color="#000" font-family="sans-serif" font-weight="400" overflow="visible"/></g></svg>