<svg xmlns="http://www.w3.org/2000/svg" xmlns:xlink="http://www.w3.org/1999/xlink" width="48" height="48"><defs><linearGradient id="b" x1="1073.403" x2="1097.116" y1="516.451" y2="544.308" gradientTransform="translate(-1422.872 663.343) scale(1.53785)" gradientUnits="userSpaceOnUse" xlink:href="#a"/><linearGradient id="a"><stop offset="0" stop-color="#16ff6a"/><stop offset="1" stop-color="#0090a5"/></linearGradient></defs><g transform="translate(-221 -1456.362)"><rect width="48" height="48" x="221" y="1456.362" fill="url(#b)" rx="10.144" ry="10.144"/><path style="line-height:normal;-inkscape-font-specification:Sans;text-indent:0;text-align:start;text-decoration-line:none;text-transform:none;block-progression:tb;marker:none" fill="#fff" d="M231.344 1466.365a.5.5 0 0 0-.344.5v27a.5.5 0 0 0 .5.5h27a.5.5 0 0 0 .5-.5v-27a.5.5 0 0 0-.5-.5h-27a.5.5 0 0 0-.156 0zm.656 1h26v3h-26v-3zm1.5 1a.5.5 0 1 0 0 1 .5.5 0 0 0 0-1zm2 0a.5.5 0 1 0 0 1 .5.5 0 0 0 0-1zm2 0a.5.5 0 1 0 0 1 .5.5 0 0 0 0-1zm-5.5 3h26v22h-26v-22zm12.844 3a.5.5 0 0 0-.031.031c-1.636.616-4.171 1.625-6.281 1.625a.5.5 0 0 0-.5.5c0 8.013 3.384 11.722 6.718 13.75a.5.5 0 0 0 .5 0c3.299-2.006 6.72-5.758 6.72-13.75a.5.5 0 0 0-.5-.5c-2.807 0-4.82-1.054-6.282-1.625a.5.5 0 0 0-.344-.03zm.188 1.032c1.264.513 3.274 1.396 5.906 1.53-.12 7.18-2.988 10.443-5.938 12.313-2.985-1.89-5.82-5.11-5.937-12.312 2.201-.139 4.48-.966 5.969-1.531zm1.53 5.343-2.187 2.157-.937-.907-.688.72 1.25 1.25.375.343.344-.344 2.531-2.5-.687-.719z" color="#000" font-family="Sans" font-weight="400" overflow="visible"/></g></svg>